<?xml version="1.0" encoding="utf-8"?>
<!-- Generator: Adobe Illustrator 22.1.0, SVG Export Plug-In . SVG Version: 6.00 Build 0)  -->
<svg version="1.1" xmlns="http://www.w3.org/2000/svg" xmlns:xlink="http://www.w3.org/1999/xlink" x="0px" y="0px"
	 viewBox="0 0 100 100" style="enable-background:new 0 0 100 100;" xml:space="preserve">
<style type="text/css">
	.st0{fill:#D33833;}
	.st1{fill:#EF3D3A;}
	.st2{fill:#231F20;}
	.st3{fill:#F0D6B7;}
	.st4{fill:#335061;}
	.st5{fill:#6D6B6D;}
	.st6{fill:#DCD9D8;}
	.st7{fill:#F7E4CD;}
	.st8{fill:#49728B;}
	.st9{fill:#FFFFFF;}
	.st10{fill:none;stroke:#D33833;stroke-width:2;}
	.st11{fill:#81B0C4;}
	.st12{fill:#1D1919;}
	.st13{fill:url(#SVGID_1_);}
	.st14{fill:#C8DAEA;}
	.st15{fill:#A9C9DD;}
	.st16{fill:url(#SVGID_2_);}
</style>
<g id="svg2" inkscape:version="0.48.0 r9654" sodipodi:docname="logo.svg" xmlns:cc="http://creativecommons.org/ns#" xmlns:dc="http://purl.org/dc/elements/1.1/" xmlns:inkscape="http://www.inkscape.org/namespaces/inkscape" xmlns:rdf="http://www.w3.org/1999/02/22-rdf-syntax-ns#" xmlns:sodipodi="http://sodipodi.sourceforge.net/DTD/sodipodi-0.dtd" xmlns:svg="http://www.w3.org/2000/svg">
	
		<sodipodi:namedview  bordercolor="#666666" borderopacity="1" gridtolerance="10" guidetolerance="10" id="namedview4" inkscape:current-layer="g10" inkscape:cx="-65.859116" inkscape:cy="172.53076" inkscape:pageopacity="0" inkscape:pageshadow="2" inkscape:window-height="844" inkscape:window-maximized="0" inkscape:window-width="1500" inkscape:window-x="2189" inkscape:window-y="496" inkscape:zoom="1" objecttolerance="10" pagecolor="#ffffff" showgrid="false">
		</sodipodi:namedview>
	<g id="g10" transform="matrix(1.25,0,0,-1.25,0,312)" inkscape:groupmode="layer" inkscape:label="ink_ext_XXXXXX">
		<g id="g3393">
			<path id="path22" inkscape:connector-curvature="0" class="st0" d="M58.4,211.1c0-15.8-12.6-28.7-28.1-28.7
				c-15.5,0-28.1,12.8-28.1,28.7c0,15.9,12.6,28.7,28.1,28.7C45.8,239.7,58.4,226.9,58.4,211.1"/>
			<path id="path24" inkscape:connector-curvature="0" class="st1" d="M3.4,203.9c0,0-2,29.9,25.5,30.8l-1.9,3.2l-15-5L7.8,228
				l-3.7-7.2l-2.1-8.3l0.6-5.6"/>
			<path id="path26" inkscape:connector-curvature="0" class="st2" d="M11.1,230.6c-4.9-5-8-12-8-19.7l0,0c0-7.7,3-14.6,8-19.7l0,0
				c4.9-5,11.7-8.1,19.2-8.1l0,0c7.5,0,14.3,3.1,19.2,8.1l0,0c4.9,5,8,12,8,19.7l0,0c0,7.7-3,14.6-8,19.7l0,0
				c-4.9,5-11.7,8.1-19.2,8.1l0,0C22.8,238.8,16,235.7,11.1,230.6L11.1,230.6z M9.9,190c-5.2,5.4-8.5,12.7-8.5,20.9l0,0
				c0,8.2,3.2,15.6,8.5,20.9l0,0c5.2,5.4,12.5,8.7,20.5,8.7l0,0c8,0,15.2-3.3,20.5-8.7l0,0c5.2-5.4,8.5-12.7,8.5-20.9l0,0
				c0-8.2-3.2-15.6-8.5-20.9l0,0c-5.2-5.4-12.5-8.7-20.5-8.7l0,0C22.3,181.4,15.1,184.7,9.9,190L9.9,190"/>
			<path id="path28" inkscape:connector-curvature="0" class="st3" d="M42.1,210.9l-4.3-0.6l-5.8-0.6l-3.7-0.1l-3.6,0.1l-2.8,0.9
				l-2.5,2.7l-1.9,5.5l-0.4,1.2l-2.6,0.9l-1.5,2.5l-1.1,3.5l1.2,3.1l2.8,1l2.2-1.1l1.1-2.4l1.3,0.2L21,228l-0.4,2.5l-0.1,3.1
				l0.6,4.3l0,2.4l1.9,3.1l3.4,2.5l6,2.6l6.6-1l5.8-4.2l2.7-4.3l1.7-3.1l0.4-7.7l-1.3-6.6l-2.4-5.9l-2.2-3.1"/>
			<path id="path30" inkscape:connector-curvature="0" class="st4" d="M38.5,192.4l-15.3-0.6v-2.6l1.3-9l-0.6-0.7l-10.7,3.6
				l-0.7,1.3l-1.1,12.1l-2.5,7.3l-0.5,1.7l8.6,5.9l2.7,1.1l2.4-2.9l2-1.8l2.4-0.7l1.1-0.3l1.3-5.6l1-1.2l2.5,0.9l-1.7-3.3l9.3-4.4
				L38.5,192.4"/>
			<path id="path32" inkscape:connector-curvature="0" class="st5" d="M13.2,229.7l2.8,1l2.2-1.1l1.1-2.4l1.3,0.2l0.3,1.3l-0.6,2.5
				l0.6,5.9l-0.5,3.2l1.9,2.2l4.2,3.3l-1.2,1.6l-5.9-2.9l-2.5-1.9l-1.4-3l-2.1-2.9l-0.6-3.4L13.2,229.7"/>
			<path id="path34" inkscape:connector-curvature="0" class="st6" d="M17.6,239.8c0,0,1.6,4,8,5.9s0.3,1.4,0.3,1.4l-6.9-2.7
				l-2.7-2.7l-1.2-2.1L17.6,239.8"/>
			<path id="path36" inkscape:connector-curvature="0" class="st6" d="M14.4,230.5c0,0-2.2,7.5,6.3,8.6l-0.3,1.3l-5.9-1.4l-1.7-5.6
				l0.4-3.6L14.4,230.5"/>
			<path id="path38" inkscape:connector-curvature="0" class="st7" d="M17.8,220.5l1.4,1.4c0,0,0.6-0.1,0.7-0.8
				c0.1-0.7,0.4-7.5,5-11.1c0.4-0.3-3.4,0.5-3.4,0.5l-3.4,5.3"/>
			<path id="path40" inkscape:connector-curvature="0" class="st7" d="M37.4,222.5c0,0,0.2,3.2,1.1,3c0.9-0.2,0.9-1.1,0.9-1.1
				S37.3,223,37.4,222.5"/>
			<path id="path42" inkscape:connector-curvature="0" class="st7" d="M46.3,234.4c0,0-1.8-0.4-1.9-1.9c-0.2-1.6,1.9-0.3,2.2-0.2"/>
			<path id="path44" inkscape:connector-curvature="0" class="st7" d="M33.4,234.3c0,0-2.4-0.3-2.4-1.8c0-1.5,2.7-1.4,3.4-0.7"/>
			<path id="path46" inkscape:connector-curvature="0" class="st7" d="M18.8,227.4c0,0-4.1,2.5-4.5,0.1c-0.4-2.4-1.4-4.1,0.6-6.5
				l-1.4,0.4l-1.3,3.3l-0.4,3.2l2.5,2.6l2.8-0.2l1.6-1.3L18.8,227.4"/>
			<path id="path48" inkscape:connector-curvature="0" class="st7" d="M20.8,234.1c0,0,1.8,9.4,11,11.2c7.6,1.5,11.5-0.3,13-2
				c0,0-6.7,8-13.1,5.6c-6.4-2.5-11.1-6.9-11-9.8C20.8,234.1,20.8,234.1,20.8,234.1"/>
			<path id="path50" inkscape:connector-curvature="0" class="st7" d="M45.6,242.2c0,0-3.1,0.1-3.2-2.7c0,0,0-0.4,0.2-0.9
				c0,0,2.5,2.8,4,1.3"/>
			<path id="path52" inkscape:connector-curvature="0" class="st7" d="M32,238.4c0,0-0.5,4.3-4.2,1.8c-2.4-1.6-2.1-3.8-1.7-4.3
				c0.4-0.4,0.3-1.3,0.6-0.7c0.3,0.6,0.2,2.5,1.4,3C29.3,238.8,31.2,239.4,32,238.4"/>
			<path id="path54" inkscape:connector-curvature="0" class="st8" d="M21.9,209.5l-10-4.5c0,0,4.2-16.6,2-21.7l-1.5,0.5l-0.1,6.3
				l-2.8,12l-1.2,3.3l10.5,7.1L21.9,209.5"/>
			<path id="path56" inkscape:connector-curvature="0" class="st8" d="M23,200.3l1.4-1.7v-6.4h-1.7c0,0-0.2,4.5-0.2,5
				c0,0.5,0.2,2.5,0.2,2.5"/>
			<path id="path58" inkscape:connector-curvature="0" class="st8" d="M23,191.2l-4.8-0.2l1.4-1l3.4-0.5"/>
			<path id="path60" inkscape:connector-curvature="0" class="st4" d="M39.5,192.3l4,0.1l1-9.8l-4.1-0.5L39.5,192.3"/>
			<path id="path62" inkscape:connector-curvature="0" class="st4" d="M40.5,192.3l6,0.3c0,0,2.5,6.2,2.5,6.5s2.1,9,2.1,9l-4.8,5
				l-1,0.9l-2.6-2.6v-9.9L40.5,192.3"/>
			<path id="path64" inkscape:connector-curvature="0" class="st8" d="M43.2,193l-3.7-0.7l0.5-3c1.4-0.6,3.7,1.1,3.7,1.1"/>
			<path id="path66" inkscape:connector-curvature="0" class="st8" d="M43.3,211.7l7.5-5.6l0.2,2.6l-5.7,5.2L43.3,211.7"/>
			<path id="path68" inkscape:connector-curvature="0" class="st9" d="M26.7,171.2l-2.2,9l-1.1,6.6l-0.2,4.9l10,0.5l6.2,0l-0.6-11.2
				l1-8.7l-0.1-1.6l-8.1-0.6L26.7,171.2"/>
			<path id="path70" inkscape:connector-curvature="0" class="st6" d="M38.1,192.4c0,0-0.5-11.1,1.1-19c0,0-3.2-2-7.9-2.6l9,0.3
				l1.1,0.6L40,189.3l-0.3,3.7"/>
			<path id="path72" inkscape:connector-curvature="0" class="st9" d="M44.6,183.4l4.2,1.2l7.9,0.4l1.2,3.6l-2.1,6.3l-2.5,0.3
				l-3.4-1.1l-3.3-1.6l-1.7,0.3l-1.4-0.5"/>
			<path id="path74" inkscape:connector-curvature="0" class="st6" d="M44.5,185.6c0,0,2.8,1.3,3.2,1.2l-1.2,5.9l1.4,0.5
				c0,0,1-5.6,1-6.2c0,0,6-0.3,6.5-0.3c0,0,1.3,2.5,1,5l1.2-3.4l0.1-1.9l-1.7-2.6l-1.9-0.4l-3.2,0.1l-1.1,1.4l-3.7-0.5l-1.2-0.4"/>
			<path id="path76" inkscape:connector-curvature="0" class="st9" d="M40.3,193.1l-2.4,6l-2.5,3.5c0,0,0.5,1.5,1.3,1.5s2.5,0,2.5,0
				l2.4-0.9l-0.2-4L40.3,193.1"/>
			<path id="path78" inkscape:connector-curvature="0" class="st6" d="M40.8,195.2c0,0-3,5.8-3,6.6c0,0,0.5,1.3,1.3,1
				s2.4-1.2,2.4-1.2v2l-3.6,0.7l-2.5-0.3l4.2-9.8l0.9-0.1"/>
			<path id="path80" inkscape:connector-curvature="0" class="st9" d="M27.7,209.3l-3,0.3l-2.8,0.9v-1l1.4-1.5l4.3-1.9"/>
			<path id="path82" inkscape:connector-curvature="0" class="st6" d="M22.9,209c0,0,3.3-1.4,4.4-1.1l0.1-1.3l-3,0.6l-1.8,1.3
				L22.9,209"/>
			<path id="path84" inkscape:connector-curvature="0" class="st0" d="M44.6,203.8c-1.8,0.1-3.5,0.3-4.9,0.7
				c0.1,0.6-0.1,1.2,0.1,1.6c0.4,0.3,1.1,0.3,1.7,0.4c-0.5,0.3-1.3,0.4-1.9,0.2c0,0.4-0.2,0.7-0.3,1c1,0.4,3.4,2.8,4.8,2
				c0.6-0.4,0.9-2.5,1-3.6C45,205.1,44.9,204.3,44.6,203.8"/>
			<path id="path86" inkscape:connector-curvature="0" class="st10" d="M44.6,203.8c-1.8,0.1-3.5,0.3-4.9,0.7
				c0.1,0.6-0.1,1.2,0.1,1.6c0.4,0.3,1.1,0.3,1.7,0.4c-0.5,0.3-1.3,0.4-1.9,0.2c0,0.4-0.2,0.7-0.3,1c1,0.4,3.4,2.8,4.8,2
				c0.6-0.4,0.9-2.5,1-3.6C45,205.1,44.9,204.3,44.6,203.8z"/>
			<path id="path88" inkscape:connector-curvature="0" class="st0" d="M35.9,206.8c0-0.1,0-0.3,0-0.4c-0.6-0.4-1.5-0.4-2.1-0.7
				c0.9,0,1.6-0.3,2.3-0.6c0-0.3,0-0.7,0-1c-1-0.7-2-1.8-3.2-2.4c-0.6-0.3-2.6-1.1-3.2-1c-0.3,0.1-0.4,0.5-0.5,0.9
				c-0.3,0.9-1,2.3-1,3.6c-0.1,1.7-0.2,4.4,1.5,4.1c1.4-0.3,3.1-0.9,4.2-1.5C34.5,207.3,34.9,206.8,35.9,206.8"/>
			<path id="path90" inkscape:connector-curvature="0" class="st10" d="M35.9,206.8c0-0.1,0-0.3,0-0.4c-0.6-0.4-1.5-0.4-2.1-0.7
				c0.9,0,1.6-0.3,2.3-0.6c0-0.3,0-0.7,0-1c-1-0.7-2-1.8-3.2-2.4c-0.6-0.3-2.6-1.1-3.2-1c-0.3,0.1-0.4,0.5-0.5,0.9
				c-0.3,0.9-1,2.3-1,3.6c-0.1,1.7-0.2,4.4,1.5,4.1c1.4-0.3,3.1-0.9,4.2-1.5C34.5,207.3,34.9,206.8,35.9,206.8z"/>
			<path id="path92" inkscape:connector-curvature="0" class="st0" d="M36.9,204.8c-0.2,0.9-0.3,1.2-0.3,1.9
				C39.1,208.3,39.5,204,36.9,204.8"/>
			<path id="path94" inkscape:connector-curvature="0" class="st10" d="M36.9,204.8c-0.2,0.9-0.3,1.2-0.3,1.9
				C39.1,208.3,39.5,204,36.9,204.8z"/>
			<path id="path96" inkscape:connector-curvature="0" class="st1" d="M40.4,204c0,0-0.7,1.1-0.2,1.4c0.5,0.3,1.1,0,1.4,0.5
				c0.3,0.5,0,0.9,0.1,1.5s0.6,0.7,1.2,0.9s2,0.3,2.2-0.2l-0.6,1.9l-1.3,0.4l-4.1-2.4l-0.2-1.2v-2.4"/>
			<path id="path98" inkscape:connector-curvature="0" class="st1" d="M29.2,200.5c-0.1,1.7-0.3,3.3-0.4,5c-0.2,2.5,0.6,2.1,2.8,2.1
				c0.3,0,2-0.4,2.2-0.6c0.6-1.2-1-0.9,0.7-1.8c1.4-0.8,3.8,0.5,3.3,2.1c-0.3,0.4-1.6,0.1-2.1,0.4c-0.8,0.4-1.7,0.9-2.5,1.3
				c-1.1,0.6-3.5,1.4-4.7,0.6c-2.9-2,0.2-6.8,1.2-8.9"/>
			<path id="path100" inkscape:connector-curvature="0" class="st2" d="M32,238.4c-2.9,0.7-4.4-1.2-5.2-3.2
				c-0.8,0.2-0.5,1.3-0.3,1.8c0.5,1.4,2.6,3.3,4.3,3.1C31.6,240,32.6,239.3,32,238.4"/>
			<path id="path102" inkscape:connector-curvature="0" class="st2" d="M46.2,235.1c0,0,0.1,0,0.1,0c0.7-1.4,1.2-2.8,2.1-4
				c-0.6-1.3-4.2-2.4-4.2-0.1c0.8,0.3,2.2,0.1,2.9,0.5C46.7,232.6,46.1,233.5,46.2,235.1"/>
			<path id="path104" inkscape:connector-curvature="0" class="st2" d="M33.5,235c0.6-1.1,0.8-2.3,1.7-3.2c0.4-0.4,1.2-0.9,0.8-1.9
				c-0.1-0.3-0.7-0.8-1.1-0.9c-1.4-0.4-4.6-0.1-3.5,1.6c1.1-0.1,2.7-0.7,3.5,0.1C34.2,231.7,33.1,233.8,33.5,235"/>
			<path id="path106" inkscape:connector-curvature="0" class="st2" d="M45.7,223.4c-2.1-1.3-4.4-2.8-7.8-2.5c-0.7,0.6-1,2.1-0.3,3
				c0.4-0.6,0.1-1.8,1.2-2c1.9-0.3,4.2,1.2,5.6,1.7c0.9,1.5-0.1,2-0.9,2.9c-1.6,1.9-3.7,4.3-3.7,7.2c0.6,0.5,0.7-0.7,0.8-0.9
				c0.8-2,2.9-4.5,4.5-6.1c0.4-0.4,1-0.8,1.1-1.1C46.3,224.9,45.6,223.9,45.7,223.4"/>
			<path id="path108" inkscape:connector-curvature="0" class="st2" d="M18.1,224.8c-0.7,0.4-0.8,2-1.6,2.1
				c-1.1,0.1-0.9-2.1-0.9-3.4c-0.8,0.7-0.9,2.8-0.3,3.9c-0.6,0.3-0.9-0.3-1.3-0.6C14.5,230.1,18.8,228.3,18.1,224.8"/>
			<path id="path110" inkscape:connector-curvature="0" class="st2" d="M47,222c-1-1.9-2.3-3.9-5.2-4c-0.1,0.6-0.1,1.5,0,1.9
				C44,220.2,45.3,221.3,47,222"/>
			<path id="path112" inkscape:connector-curvature="0" class="st2" d="M33.3,220.8c1.8-1,5.2-1.1,7.6-1c0.1-0.5,0.1-1.2,0.1-1.9
				C37.9,217.8,34.2,218.6,33.3,220.8"/>
			<path id="path114" inkscape:connector-curvature="0" class="st2" d="M33,219c1.3-3.2,5.6-2.8,9.2-2.7c-0.2-0.4-0.5-0.9-0.9-1.1
				c-1.2-0.5-4.4-0.8-6,0c-1,0.5-1.7,1.8-2.3,2.5C32.7,218.2,31.4,219,33,219"/>
			<path id="path116" inkscape:connector-curvature="0" class="st11" d="M45.5,201.6c-1.5-2.5-2.9-5.1-4.6-7.4
				c0.7,2.2,1,5.8,1.2,8.5C43.6,203.5,44.9,202.6,45.5,201.6"/>
			<path id="path118" inkscape:connector-curvature="0" class="st2" d="M53.5,192.5c-1.7-0.3-2.8-1.9-4.4-1.8
				C49.9,191.9,51.5,192.5,53.5,192.5"/>
			<path id="path120" inkscape:connector-curvature="0" class="st2" d="M54.2,189.9c-1.3-0.1-2.9-0.4-4.3-0.2
				C50.5,190.7,53,190.3,54.2,189.9"/>
			<path id="path122" inkscape:connector-curvature="0" class="st2" d="M54.7,187.7c-1.5,0-3.4,0-4.8,0.1
				C50.7,188.7,53.7,188.2,54.7,187.7"/>
			<path id="path124" inkscape:connector-curvature="0" class="st6" d="M42.7,181.6c0.2-1.9,1-3.8,0.9-5.9c-0.8-0.3-1.3-0.5-2.4-0.5
				c-0.1,1.8-0.3,4.5-0.2,6.2C41.4,181.3,42.2,181.7,42.7,181.6"/>
			<path id="path126" inkscape:connector-curvature="0" class="st3" d="M40.2,209.6c-0.8-0.5-1.4-1.1-2.1-1.6
				c-1.6-0.1-2.5,0.1-3.7,1c0,0.1,0.1,0,0.1,0.1C36.3,208.4,38.5,209.5,40.2,209.6"/>
			<path id="path128" inkscape:connector-curvature="0" class="st11" d="M31.1,197.8c0.5,2.1,2.3,3.1,4,4.3c1.8-2.2,2.8-5.1,4-7.8
				C36.4,195.1,33.5,196.4,31.1,197.8"/>
			<path id="path130" inkscape:connector-curvature="0" class="st2" d="M40.9,181.3c-0.1-1.7,0.2-4.4,0.2-6.2c1.1,0,1.6,0.2,2.4,0.5
				c0.1,2.1-0.7,4-0.9,5.9C42.2,181.7,41.4,181.3,40.9,181.3z M23.4,190.9c0.7-6.8,1.8-12.5,3.8-18.6c4.4-1.3,9.6-1.4,13.5-0.2
				c-0.7,3.4-0.4,7.5-0.8,11.2c-0.3,2.7-0.2,5.5-0.6,8.3C34.6,192.5,28,191.8,23.4,190.9z M40.3,191.5c0-2.9,0.1-5.8,0.4-8.7
				c1.1,0.2,1.9,0.3,2.9,0.5c-0.3,2.8-0.3,6-1,8.5C41.8,191.8,41.1,191.8,40.3,191.5z M46,192c-0.5,0.1-1.2,0-1.7,0
				c0.2-2.4,0.8-5,1-7.5c0.8,0,1.2,0.4,1.9,0.5C47.3,187.1,47.1,190.2,46,192L46,192z M54.7,184.1c1.7,0.4,2.7,2.4,2.3,4.5
				c-0.3,1.4-0.9,4.1-1.5,5c-0.4,0.7-1.6,1.5-2.6,0.9c-1.6-1-4.3-1.3-5.4-2.5c0.6-1.9,0.7-4.5,1-6.9c1.9-0.1,4.3,0.5,5.9-0.2
				c-1.1-0.4-2.6-0.4-3.6-0.9C51.6,183.7,53.4,183.8,54.7,184.1L54.7,184.1z M39.1,194.2c-1.2,2.8-2.2,5.6-4,7.8
				c-1.7-1.1-3.6-2.2-4-4.3C33.5,196.4,36.4,195.1,39.1,194.2z M42,202.8c-0.1-2.8-0.4-6.4-1.2-8.5c1.8,2.2,3.2,4.8,4.6,7.4
				C44.9,202.6,43.6,203.5,42,202.8z M38.8,203.9c-0.7,0.1-1.2-0.8-2.1-0.4c-0.2-0.2-0.4-0.5-0.6-0.7c1.9-2.3,2.8-5.6,4.2-8.3
				c0.8,2.6,0.7,5.4,0.9,8.3C40.1,202.8,39.5,203.9,38.8,203.9z M36.6,206.7c-0.1-0.8,0.1-1,0.3-1.9C39.5,204,39.1,208.3,36.6,206.7
				z M33.8,207.7c-1.1,0.6-2.8,1.3-4.2,1.5c-1.8,0.3-1.6-2.4-1.5-4.1c0.1-1.3,0.7-2.7,1-3.6c0.1-0.4,0.2-0.8,0.5-0.9
				c0.6-0.1,2.6,0.7,3.2,1c1.2,0.7,2.2,1.7,3.2,2.4c0,0.3,0,0.7,0,1c-0.6,0.3-1.3,0.5-2.3,0.6c0.6,0.3,1.5,0.3,2.1,0.7
				c0,0.1,0,0.3,0,0.4C34.9,206.8,34.5,207.3,33.8,207.7z M23.1,209.6c-0.9-0.9,2.6-2.2,3.7-2.3c0,0.6,0.3,1.2,0.3,1.6
				C25.8,209.1,24,209,23.1,209.6z M34.5,209.2c0-0.1-0.1-0.1-0.1-0.1c1.2-0.9,2.1-1.1,3.7-1c0.7,0.5,1.4,1.2,2.1,1.6
				C38.5,209.5,36.3,208.4,34.5,209.2z M45,206c-0.1,1-0.3,3.2-1,3.6c-1.4,0.8-3.8-1.6-4.8-2c0.1-0.3,0.3-0.6,0.3-1
				c0.6,0.1,1.3,0,1.9-0.2c-0.6-0.1-1.3-0.1-1.7-0.4c-0.1-0.4,0-1-0.1-1.6c1.4-0.4,3.1-0.6,4.9-0.7C44.9,204.3,45,205.1,45,206z
				 M21.6,208.7c-0.3,0.2-2.3,2.8-2.5,2.7c-3.6-1.4-6.9-3.8-9.9-6.1c2.8-6.1,4-13.5,4.2-20.7c3.2-1.5,6.1-3.7,10.5-3.9
				c-0.5,3.6-1,6.8-1.3,10.2c-1.1,0.5-2.7,0-3.7,0.1c0,1.2,1.6,0.5,1.7,1.4c0.1,0.6-0.9,0.7-0.6,1.7c0.8-0.3,1.2-0.9,2.1-1.2
				c0.8,1.7,0,4.8,0.1,6.2c0,0.3,0.1,1.5,0.7,1.3c0.5-0.2,0-3.3,0-4.6c0.1-1.3-0.2-2.5,0.4-3.3c4.3,0.6,8.6,1,13.2,1.1
				c-1,0.4-2.2,0.8-3.5,1.6c-0.7,0.4-3,1.2-3.2,1.9c-0.3,1.1,0.9,1.7,1.1,2.6c-2.1-1.2-2.6,1.1-3.1,2.7c-0.5,1.5-0.7,2.6-0.8,3.4
				C25.1,206.7,23.2,207.6,21.6,208.7L21.6,208.7z M43.1,211c3,1.4,3.5-5.4,2.3-7.6c0.2-0.7,0.8-0.9,1-1.5c-1.7-3-3.5-5.7-5.2-8.7
				c1.3,0.8,3,0.1,4.5,0.7c0.5,0.2,0.9,1.4,1.3,2.4c1.1,2.7,2.3,6.2,2.8,8.7c0.1,0.6,0.4,1.9,0.4,2.4c-0.1,0.9-1.4,1.6-2.1,2.2
				c-1.2,1.1-2,2-3.2,3C44.6,212.2,43.5,211.7,43.1,211L43.1,211z M14.8,237.3c-1.4-1.6-1.1-4.5-0.9-6.5c2.6,1.6,5.9-0.1,5.9-2.9
				c1.2,0,0.5,1.5,0.2,2.5c-0.7,3.1,1.2,6.5,0.1,9.4C17.9,239.7,16.1,238.8,14.8,237.3L14.8,237.3z M24.9,246.3
				c-3.2-0.9-7.3-3.2-8.6-6.1c1,0.1,1.7,0.7,2.7,0.7c0.4,0,0.9-0.2,1.3-0.1c0.9,0.2,1.6,2.2,2.3,2.9c0.6,0.7,1.4,1,1.9,1.7
				c0.3,0.2,0.8,0.2,0.9,0.7C25.2,246.3,25.1,246.4,24.9,246.3z M41.5,245.5c-3.3,1.9-8.9,3.3-12.5,1.5c-2.8-1.4-6.7-3.8-8-6.7
				c1.2-2.9-0.4-5.5-0.5-8.4c-0.1-1.6,0.7-2.9,0.8-4.6c-0.4-0.7-1.7-0.8-2.6-0.7c-0.3,1.5-0.8,3.2-2.4,3.3c-2.2,0.2-3.8-1.6-3.9-3.4
				c-0.1-2.2,1.7-5.9,4.3-5.6c1,0.1,1.2,1.1,2.3,1.1c0.6-1.2-0.9-1.5-1.1-2.4c0-0.2,0.1-1.1,0.2-1.5c0.5-1.9,1.5-4.4,2.5-5.9
				c1.3-1.9,3.9-2.1,6.6-2.3c0.5,1.1,2.3,1,3.5,0.7c-1.4,0.6-2.7,1.9-3.8,3.1c-1.3,1.4-2.5,2.9-2.6,4.7c2.4-3.3,4.3-6.2,8.6-7.6
				c3.3-1.1,7.1,0.5,9.6,2.3c1,0.7,1.7,1.9,2.4,3c2.8,4,4.1,9.6,3.8,15.1c-0.1,2.3-0.1,4.5-0.9,6.1c-0.8,1.6-3.5,3-5.1,1.6
				c-0.3,1.6,1.3,2.5,3.2,2C44.9,242.3,43.4,244.4,41.5,245.5L41.5,245.5z M47.7,194.3c2.6,1.3,7.4,3.5,9.1,0
				c0.6-1.3,1.3-3.4,1.6-4.8c0.4-1.9-0.5-5.8-2.4-6.4c-1.7-0.6-3.7-0.5-5.7-0.1c-0.2,0.2-0.5,0.5-0.7,0.9c-1.5,0.1-2.8-0.1-4-0.7
				c0.1-1.1-0.6-1.2-1.3-1.5c-0.5-2,1-4.6,0.6-6.5c-0.3-1.3-1.9-1.5-3-1.7c0-0.7,0.1-1.3,0.1-1.9c-0.3-1-1.5-1.6-2.6-1.7
				c-3.8-0.5-9.5-0.7-13.1,0.6c-1,2.5-1.8,5.5-2.7,8.3c-3.5-0.4-6.4,1.5-9.1,2.8c-0.9,0.4-2.2,0.7-2.6,1.4c-0.3,0.7-0.2,2.1-0.3,3.4
				c-0.2,3.3-0.4,6.5-1.3,9.9c-0.4,1.5-1.1,2.9-1.6,4.4c-0.4,1.4-1.2,3.1-1.4,4.4c-0.3,2,1.6,2.1,2.8,3c1.9,1.4,3.4,2.1,5.4,3.3
				c0.6,0.4,2.4,1.3,2.6,1.7c0.4,0.8-0.7,2-1,2.7c-0.5,1-0.7,1.9-0.8,2.9c-1.7,0.3-3,1.3-3.8,2.4c-1.3,1.9-2.2,5.4-1.1,8.1
				c0.1,0.2,0.5,0.6,0.6,0.9c0.1,0.6-0.2,1.5-0.3,2.2c-0.1,3.5,0.6,6.5,2.9,7.5c0.9,3.8,4.3,5,7.5,6.9c1.2,0.7,2.5,1.1,3.9,1.6
				c4.9,1.8,12.4,1.5,16.4-1.6c1.7-1.3,4.5-4,5.4-6c2.6-5.2,2.4-14,0.6-20.4c-0.2-0.9-0.6-2.1-1.1-3.1c-0.3-0.7-1.4-2.2-1.3-2.8
				c0.1-0.7,2.4-2.4,2.9-2.9c0.9-0.9,2.6-2,2.7-3.1c0.1-1.2-0.5-2.7-0.8-3.8C50.1,201.1,49,197.6,47.7,194.3"/>
			<path id="path132" inkscape:connector-curvature="0" class="st7" d="M30.4,220c0.1,0.2,0.9,0.5,2,0c0,0-1.3-0.2-1.2-2.4l-0.5,0.1
				C30.7,217.7,30.2,219.7,30.4,220"/>
			<path id="path134" inkscape:connector-curvature="0" class="st12" d="M39.8,201.6c0-0.3-0.3-0.6-0.6-0.6c-0.3,0-0.6,0.3-0.6,0.6
				c0,0.3,0.3,0.6,0.6,0.6C39.5,202.2,39.8,202,39.8,201.6"/>
			<path id="path136" inkscape:connector-curvature="0" class="st12" d="M40.4,198.9c0-0.3-0.3-0.6-0.6-0.6c-0.3,0-0.6,0.3-0.6,0.6
				s0.3,0.6,0.6,0.6C40.1,199.5,40.4,199.2,40.4,198.9"/>
		</g>
	</g>
</g>
<g id="Слой_2">
	
		<linearGradient id="SVGID_1_" gradientUnits="userSpaceOnUse" x1="-190.8534" y1="445.3879" x2="-190.8922" y2="445.2973" gradientTransform="matrix(240 0 0 -240 45888 106917.5234)">
		<stop  offset="0" style="stop-color:#37AEE2"/>
		<stop  offset="1" style="stop-color:#1E96C8"/>
	</linearGradient>
	<path class="st13" d="M79.9,19.5c10.1,0,18.3,8.2,18.3,18.3S90,56.1,79.9,56.1c-9.8,0.1-19.9-6.4-26.7-13.5
		c-1.5-1.7,10.8,3.9,9.4,1.2c-0.7-1.9-1-3.9-1-6.1C61.6,27.6,69.8,19.5,79.9,19.5z"/>
	<path class="st14" d="M76.6,46.1c-0.6,0-0.5-0.2-0.7-0.8l-1.7-5.7l13.4-8"/>
	<path class="st15" d="M76.6,46.1c0.5,0,0.7-0.2,0.9-0.5l2.4-2.4l-3-1.8"/>
	
		<linearGradient id="SVGID_2_" gradientUnits="userSpaceOnUse" x1="-190.2811" y1="444.0852" x2="-190.2519" y2="444.0294" gradientTransform="matrix(130.4927 0 0 -109.4496 24911.5234 48643.1406)">
		<stop  offset="0" style="stop-color:#EFF7FC"/>
		<stop  offset="1" style="stop-color:#FFFFFF"/>
	</linearGradient>
	<path class="st16" d="M76.9,41.5l7.4,5.4c0.8,0.5,1.4,0.2,1.7-0.8l3-14.1c0.3-1.2-0.5-1.8-1.3-1.4L70,37.4
		c-1.2,0.5-1.2,1.2-0.2,1.5l4.5,1.4l10.5-6.6c0.5-0.3,0.9-0.1,0.6,0.2"/>
</g>
</svg>
